<svg width="48" height="48" viewBox="0 0 48 48" fill="none" xmlns="http://www.w3.org/2000/svg">
<path d="M14.6743 17.9999C14.9417 15.6096 15.7642 13.3148 17.0763 11.2989C18.3883 9.28304 20.1535 7.60182 22.231 6.38952C24.3084 5.17722 26.6405 4.46742 29.041 4.31679C31.4416 4.16615 33.8441 4.57887 36.0567 5.52197C38.2694 6.46507 40.2309 7.91244 41.7847 9.74852C43.3385 11.5846 44.4414 13.7585 45.0055 16.0967C45.5696 18.4349 45.5792 20.8726 45.0335 23.2152C44.4879 25.5577 43.4021 27.7403 41.8629 29.5885" stroke="#AC2E2E" stroke-width="1.71429" stroke-linecap="round" stroke-linejoin="round"/>
<path d="M30 12.8571V19.7142H35.1429" stroke="#AC2E2E" stroke-width="1.71429" stroke-linecap="round" stroke-linejoin="round"/>
<path d="M2.57143 26.5714H16.2857C17.4113 26.5714 18.5259 26.7931 19.5659 27.2238C20.6058 27.6546 21.5507 28.2859 22.3466 29.0819C23.1426 29.8778 23.7739 30.8227 24.2047 31.8626C24.6354 32.9026 24.8571 34.0172 24.8571 35.1428V35.1428" stroke="#AC2E2E" stroke-width="1.71429" stroke-linecap="round" stroke-linejoin="round"/>
<path d="M14.5714 35.1428H31.7143C33.5329 35.1428 35.2771 35.8653 36.563 37.1512C37.849 38.4372 38.5714 40.1813 38.5714 42C38.5714 42.4546 38.3908 42.8907 38.0693 43.2121C37.7478 43.5336 37.3118 43.7143 36.8571 43.7143H2.57143" stroke="#AC2E2E" stroke-width="1.71429" stroke-linecap="round" stroke-linejoin="round"/>
</svg>
