<svg width="24" height="24" viewBox="0 0 24 24" fill="none" xmlns="http://www.w3.org/2000/svg">
<path d="M17.999 0.0049936L14.8868 0C11.3903 0 9.13069 2.31828 9.13069 5.90643V8.62969H6.00148C5.73108 8.62969 5.51212 8.84891 5.51212 9.11932V13.065C5.51212 13.3354 5.73133 13.5544 6.00148 13.5544H9.13069V23.5106C9.13069 23.781 9.34966 24 9.62006 24H13.7028C13.9732 24 14.1922 23.7808 14.1922 23.5106V13.5544H17.8509C18.1213 13.5544 18.3403 13.3354 18.3403 13.065L18.3418 9.11932C18.3418 8.98948 18.2901 8.86514 18.1985 8.77326C18.1069 8.68138 17.982 8.62969 17.8522 8.62969H14.1922V6.32115C14.1922 5.21157 14.4566 4.64829 15.9019 4.64829L17.9985 4.64755C18.2686 4.64755 18.4876 4.42833 18.4876 4.15817V0.494367C18.4876 0.224462 18.2689 0.00549296 17.999 0.0049936Z" fill="#0A033C"/>
</svg>
