<svg width="48" height="48" viewBox="0 0 48 48" fill="none" xmlns="http://www.w3.org/2000/svg">
<path d="M5.14288 29.1428V44.5714C5.14288 45.026 5.32349 45.4621 5.64499 45.7836C5.96648 46.1051 6.40251 46.2857 6.85717 46.2857H41.1429C41.5975 46.2857 42.0336 46.1051 42.3551 45.7836C42.6766 45.4621 42.8572 45.026 42.8572 44.5714V29.1428" stroke="#AC2E2E" stroke-width="1.71429" stroke-linecap="round" stroke-linejoin="round"/>
<path d="M27.4286 29.1428V46.2857" stroke="#AC2E2E" stroke-width="1.71429" stroke-linecap="round" stroke-linejoin="round"/>
<path d="M5.14288 34.2856H27.4286" stroke="#AC2E2E" stroke-width="1.71429" stroke-linecap="round" stroke-linejoin="round"/>
<path d="M1.71429 13.7142L6.85715 1.71423H41.1429L46.2857 13.7142H1.71429Z" stroke="#AC2E2E" stroke-width="1.71429" stroke-linecap="round" stroke-linejoin="round"/>
<path d="M16.2857 13.7142V17.1428C16.2857 18.9614 15.5633 20.7056 14.2773 21.9915C12.9914 23.2775 11.2472 23.9999 9.42859 23.9999H8.46859C6.64997 23.9999 4.90582 23.2775 3.61986 21.9915C2.3339 20.7056 1.61145 18.9614 1.61145 17.1428V13.7142" stroke="#AC2E2E" stroke-width="1.71429" stroke-linecap="round" stroke-linejoin="round"/>
<path d="M31.7143 13.7142V17.1428C31.7143 18.9614 30.9919 20.7056 29.7059 21.9915C28.42 23.2775 26.6758 23.9999 24.8572 23.9999H23.1429C21.3243 23.9999 19.5801 23.2775 18.2942 21.9915C17.0082 20.7056 16.2858 18.9614 16.2858 17.1428V13.7142" stroke="#AC2E2E" stroke-width="1.71429" stroke-linecap="round" stroke-linejoin="round"/>
<path d="M46.2857 13.7142V17.1428C46.2857 18.9614 45.5633 20.7056 44.2773 21.9915C42.9913 23.2775 41.2472 23.9999 39.4286 23.9999H38.5714C36.7528 23.9999 35.0087 23.2775 33.7227 21.9915C32.4367 20.7056 31.7143 18.9614 31.7143 17.1428V13.7142" stroke="#AC2E2E" stroke-width="1.71429" stroke-linecap="round" stroke-linejoin="round"/>
</svg>
