<svg width="24" height="18" viewBox="0 0 24 18" fill="none" xmlns="http://www.w3.org/2000/svg">
<path d="M7.57778 17.9257C16.5746 17.9257 21.4946 11.058 21.4946 5.1026C21.4946 4.90754 21.4903 4.71335 21.4808 4.52005C22.4358 3.88389 23.2659 3.09002 23.9206 2.18629C23.0442 2.54523 22.1011 2.78686 21.1117 2.89582C22.1216 2.33786 22.8968 1.45524 23.2626 0.403061C22.3176 0.919281 21.271 1.29447 20.1567 1.49704C19.2641 0.621031 17.9934 0.0731201 16.5864 0.0731201C13.8852 0.0731201 11.6948 2.09146 11.6948 4.57935C11.6948 4.93301 11.7378 5.27701 11.8217 5.60698C7.75648 5.41851 4.15176 3.62513 1.73928 0.89819C1.31922 1.56422 1.077 2.33788 1.077 3.1634C1.077 4.727 1.94052 6.10735 3.25364 6.91488C2.45116 6.89203 1.69732 6.68905 1.03844 6.35121C1.03772 6.37011 1.03772 6.38855 1.03772 6.40876C1.03772 8.59141 2.72372 10.4137 4.9618 10.8267C4.55079 10.9299 4.11836 10.9853 3.67204 10.9853C3.35735 10.9853 3.05076 10.9567 2.75276 10.904C3.37546 12.6947 5.18116 13.9978 7.32196 14.0342C5.64788 15.2433 3.539 15.9634 1.247 15.9634C0.85268 15.9634 0.463133 15.9427 0.0802765 15.901C2.245 17.1795 4.8154 17.9254 7.57804 17.9254" fill="#0A033C"/>
</svg>
