<svg width="24" height="18" viewBox="0 0 24 18" fill="none" xmlns="http://www.w3.org/2000/svg">
<path d="M7.57779 17.9257C16.5746 17.9257 21.4946 11.058 21.4946 5.1026C21.4946 4.90754 21.4903 4.71335 21.4808 4.52005C22.4358 3.88389 23.2659 3.09002 23.9206 2.18629C23.0442 2.54523 22.1011 2.78686 21.1117 2.89582C22.1216 2.33786 22.8969 1.45524 23.2626 0.403061C22.3176 0.919281 21.271 1.29447 20.1567 1.49704C19.2641 0.621031 17.9934 0.0731201 16.5864 0.0731201C13.8853 0.0731201 11.6949 2.09146 11.6949 4.57935C11.6949 4.93301 11.7378 5.27701 11.8217 5.60698C7.75649 5.41851 4.15178 3.62513 1.7393 0.89819C1.31923 1.56422 1.07702 2.33788 1.07702 3.1634C1.07702 4.727 1.94054 6.10735 3.25366 6.91488C2.45118 6.89203 1.69734 6.68905 1.03846 6.35121C1.03774 6.37011 1.03773 6.38855 1.03773 6.40876C1.03773 8.59141 2.72374 10.4137 4.96182 10.8267C4.55081 10.9299 4.11837 10.9853 3.67205 10.9853C3.35737 10.9853 3.05077 10.9567 2.75277 10.904C3.37548 12.6947 5.18117 13.9978 7.32197 14.0342C5.64789 15.2433 3.53902 15.9634 1.24702 15.9634C0.852695 15.9634 0.463148 15.9427 0.0802917 15.901C2.24501 17.1795 4.81542 17.9254 7.57806 17.9254" fill="#0A033C"/>
</svg>
